<?xml version="1.0" encoding="UTF-8"?>
<svg width="160px" height="176px" viewBox="0 0 160 176" version="1.1" xmlns="http://www.w3.org/2000/svg" xmlns:xlink="http://www.w3.org/1999/xlink">
    <title>Logo/icon/color</title>
    <defs>
        <polygon id="path-1" points="0 0 159.717403 0 159.717403 175.685582 0 175.685582"></polygon>
        <linearGradient x1="0%" y1="53.5902097%" x2="95.6453238%" y2="53.5902097%" id="linearGradient-3">
            <stop stop-color="#F9E300" offset="0%"></stop>
            <stop stop-color="#77BD75" offset="77.4448689%"></stop>
            <stop stop-color="#409C68" offset="100%"></stop>
        </linearGradient>
    </defs>
    <g id="App-Design" stroke="none" stroke-width="1" fill="none" fill-rule="evenodd">
        <g id="Loading-start-screen" transform="translate(-108.000000, -153.000000)">
            <g id="Group-3" transform="translate(108.000000, 153.000000)">
                <mask id="mask-2" fill="white">
                    <use xlink:href="#path-1"></use>
                </mask>
                <g id="Clip-2"></g>
                <path d="M134.040104,68.8902751 L134.040104,111.464166 C134.040104,115.37946 131.949714,118.999809 128.556468,120.956417 L87.6276364,144.579038 C84.2343896,146.535646 80.0536104,146.535646 76.6603636,144.579038 L51.689974,130.168263 L17.2920519,139.953383 L76.6603636,174.21688 C80.0536104,176.175565 84.2343896,176.175565 87.6276364,174.21688 L154.235429,135.776376 C157.628675,133.817691 159.719065,130.199419 159.719065,126.282048 L159.719065,54.9156868 L134.040104,68.8902751 Z M4.56893506,121.392604 L4.56893506,49.4031189 C4.56893506,45.4857477 6.65932468,41.8674759 10.0525714,39.9087903 L76.6603636,1.46828722 C80.0536104,-0.490398377 84.2343896,-0.490398377 87.6276364,1.46828722 L159.719065,43.0742588 L74.9772468,90.707914 L90.1460779,106.705577 L5.55387013,133.177951 L5.55179221,133.177951 L-0.000415584416,134.916466 L30.838026,118.133667 L30.862961,118.148206 L64.3486753,100.01946 L46.5533506,79.7243197 L110.914909,44.5469079 L87.6276364,31.106129 C84.2343896,29.1474434 80.0536104,29.1474434 76.6603636,31.106129 L35.7315325,54.7287497 C32.3382857,56.6853582 30.2478961,60.3057071 30.2478961,64.2210012 L30.2478961,106.958981 L4.56893506,121.392604 Z" id="Fill-1" fill="url(#linearGradient-3)" mask="url(#mask-2)"></path>
            </g>
        </g>
    </g>
</svg>