<?xml version="1.0" encoding="UTF-8"?>
<svg width="39px" height="48px" viewBox="0 0 39 48" version="1.1" xmlns="http://www.w3.org/2000/svg" xmlns:xlink="http://www.w3.org/1999/xlink">
    <title>Group 5 Copy 5</title>
    <g id="App-Design" stroke="none" stroke-width="1" fill="none" fill-rule="evenodd">
        <g id="Map" transform="translate(-245.000000, -393.000000)">
            <g id="Group-5-Copy" transform="translate(245.000000, 393.000000)">
                <path d="M32.491604,5.83127672 C25.0617382,-1.94375891 13.0072274,-1.94375891 5.57736148,5.83127672 C-1.85912049,13.6096493 -1.85912049,26.2198895 5.57736148,33.9949251 L19.0344828,48 L32.491604,33.9949251 C39.928086,26.2198895 39.928086,13.6096493 32.491604,5.83127672" id="Fill-1" fill="#EF6048"></path>
                <path d="M25.0927338,13.9870339 L25.0927338,18.7759822 C25.0927338,19.2163963 24.8560685,19.6236333 24.471899,19.8437236 L19.8381053,22.5009275 C19.4539359,22.7210178 18.9806052,22.7210178 18.5964358,22.5009275 L15.7693911,20.8799233 L11.875,21.9806081 L18.5964358,25.8347571 C18.9806052,26.055081 19.4539359,26.055081 19.8381053,25.8347571 L27.3791653,21.5107552 C27.7633347,21.2904313 28,20.8834279 28,20.4427802 L28,12.4150943 L25.0927338,13.9870339 Z M10.5149548,19.9208423 L10.5149548,11.6654113 C10.5149548,11.2161848 10.7505367,10.8012576 11.1329474,10.5766443 L18.6394848,6.16845995 C19.0218955,5.94384668 19.4930593,5.94384668 19.87547,6.16845995 L28,10.939646 L18.4498016,16.4020598 L20.1592923,18.2366 L10.6259546,21.272333 L10.6257204,21.272333 L10,21.4716981 L13.4754179,19.547122 L13.4782281,19.5487894 L17.2519873,17.4698661 L15.2464971,15.1425105 L22.4998894,11.1085228 L19.87547,9.56719463 C19.4930593,9.34258135 19.0218955,9.34258135 18.6394848,9.56719463 L14.0269043,12.2761307 C13.6444936,12.5005058 13.4089117,12.9156712 13.4089117,13.3646595 L13.4089117,18.2656592 L10.5149548,19.9208423 Z" id="Fill-1" fill="#FFFFFF"></path>
            </g>
        </g>
    </g>
</svg>