<?xml version="1.0" encoding="UTF-8"?>
<svg width="30px" height="27px" viewBox="0 0 30 27" version="1.1" xmlns="http://www.w3.org/2000/svg" xmlns:xlink="http://www.w3.org/1999/xlink">
    <title>Type_2_mennekes</title>
    <g id="App-Design" stroke="none" stroke-width="1" fill="none" fill-rule="evenodd">
        <g id="Begin-Charging---invoice-registered-user" transform="translate(-33.000000, -412.000000)" stroke="#000000">
            <g id="Group-15" transform="translate(0.000000, 334.000000)">
                <g id="Group-8" transform="translate(25.000000, 70.000000)">
                    <g id="Type_2_mennekes" transform="translate(10.000000, 10.000000)">
                        <ellipse id="ellipse4206" stroke-width="1.5525" cx="16.641737" cy="15.7489779" rx="2.27850802" ry="2.19909252"></ellipse>
                        <ellipse id="ellipse4208" stroke-width="1.5525" cx="9.34558272" cy="15.7489779" rx="2.27850802" ry="2.19909252"></ellipse>
                        <ellipse id="ellipse4210" stroke-width="1.5525" cx="5.9120982" cy="9.80996706" rx="2.27850802" ry="2.19909252"></ellipse>
                        <ellipse id="ellipse4212" stroke-width="1.5525" cx="12.9936612" cy="9.80996706" rx="2.27850802" ry="2.19909252"></ellipse>
                        <ellipse id="ellipse4214" stroke-width="1.5525" cx="19.9679272" cy="9.80996706" rx="2.27850802" ry="2.19909252"></ellipse>
                        <ellipse id="ellipse4216" stroke-width="1.5525" cx="16.5880905" cy="4.98452425" rx="1.66342631" ry="1.69718839"></ellipse>
                        <ellipse id="ellipse4218" stroke-width="1.5525" cx="9.6138245" cy="4.98452425" rx="1.66342631" ry="1.69718839"></ellipse>
                        <path d="M5.80479645,0 L20.397107,0 C20.397107,0 21.9272182,1.02265286 22.5718441,1.72533454 C23.2164706,2.42801689 23.8305296,3.37279605 24.2597611,4.13607308 C24.6889926,4.8993501 25.0367345,5.58301442 25.3327412,6.46927697 C25.6287478,7.35553952 25.9000278,8.27894542 25.9765197,9.43878039 C26.0530115,10.5986154 25.9418133,12.1856201 25.6546308,13.3627678 C25.3674483,14.5399147 24.833988,15.611154 24.3670744,16.4383261 C23.9001609,17.2654976 23.5581565,17.6846451 22.9722204,18.3472927 C22.3862843,19.0099403 21.6163382,19.7572797 20.8262922,20.3623128 C20.0362463,20.9673453 19.2048948,21.521064 18.2511795,21.9531185 C17.2974643,22.385173 15.1395832,22.9076024 15.1395832,22.9076024 C15.1395832,22.9076024 12.2176188,23.2949763 9.88205948,22.4833879 C8.95372085,22.1607978 8.34539128,22.050831 7.3069461,21.528904 C6.00607835,20.8750826 4.75316102,20.0461782 3.76616459,18.9836151 C2.40966777,17.5232622 1.32251601,15.7623841 0.654568991,13.8930365 C0.125654495,12.4127931 -0.0475596817,10.7954631 0.0107911541,9.22667315 C0.0551179972,8.03493067 0.337114935,6.84310477 0.761865297,5.72690095 C1.12263889,4.77882273 1.73482004,3.86688146 2.26401562,3.07555772 C2.78169323,2.30145784 3.69323098,1.4528331 4.3026468,0.954483939 C4.91206262,0.456134778 5.80479645,0 5.80479645,0 Z" id="path4231" stroke-width="2.7" stroke-linejoin="round"></path>
                    </g>
                </g>
            </g>
        </g>
    </g>
</svg>