<?xml version="1.0" encoding="UTF-8"?>
<svg width="97px" height="107px" viewBox="0 0 97 107" version="1.1" xmlns="http://www.w3.org/2000/svg" xmlns:xlink="http://www.w3.org/1999/xlink">
    <title>Fill 1</title>
    <g id="App-Design" stroke="none" stroke-width="1" fill="none" fill-rule="evenodd">
        <g id="Invoices-not-set-up" transform="translate(-139.000000, -252.000000)" fill="#212121">
            <g id="Group-3" transform="translate(139.000000, 252.000000)">
                <path d="M81.4047876,41.9573055 L81.4047876,67.8864643 C81.4047876,70.271031 80.1352631,72.4759646 78.0744942,73.6676154 L53.2178104,88.0547122 C51.1570416,89.2463631 48.6179926,89.2463631 46.5572237,88.0547122 L31.3923372,79.2779886 L10.501971,85.2375079 L46.5572237,106.105313 C48.6179926,107.298229 51.1570416,107.298229 53.2178104,106.105313 L93.6697066,82.6935484 C95.7304755,81.5006325 97,79.2969639 97,76.9111322 L97,33.4462366 L81.4047876,41.9573055 Z M2.77503415,73.9332701 L2.77503415,30.0888678 C2.77503415,27.7030361 4.04455864,25.4993675 6.10532752,24.3064516 L46.5572237,0.894686907 C48.6179926,-0.298228969 51.1570416,-0.298228969 53.2178104,0.894686907 L97,26.2343454 L45.535042,55.245098 L54.7472972,64.9882985 L3.37319977,81.1110057 L3.37193781,81.1110057 L0,82.1698292 L18.7286411,71.9484503 L18.7437846,71.9573055 L39.0801535,60.9161923 L28.27279,48.555661 L67.3605152,27.131246 L53.2178104,18.9452878 C51.1570416,17.7523719 48.6179926,17.7523719 46.5572237,18.9452878 L21.7005399,33.3323846 C19.639771,34.5240354 18.3702465,36.728969 18.3702465,39.1135357 L18.3702465,65.1426312 L2.77503415,73.9332701 Z" id="Fill-1"></path>
            </g>
        </g>
    </g>
</svg>