<?xml version="1.0" encoding="UTF-8"?>
<svg width="16px" height="20px" viewBox="0 0 16 20" version="1.1" xmlns="http://www.w3.org/2000/svg" xmlns:xlink="http://www.w3.org/1999/xlink">
    <title>Fill 2</title>
    <g id="App-Design" stroke="none" stroke-width="1" fill="none" fill-rule="evenodd">
        <g id="Fully-charged" transform="translate(-247.000000, -113.000000)" fill="#FFFFFF">
            <g id="Group-7" transform="translate(246.999583, 112.999444)">
                <path d="M8.00069523,18.0010568 C4.69140523,18.0010568 2.00086904,15.309102 2.00086904,12.001168 C2.00086904,8.69184349 4.69140523,5.99988876 8.00069523,5.99988876 C11.3099852,5.99988876 14.0005214,8.69184349 14.0005214,12.001168 C14.0005214,15.309102 11.3099852,18.0010568 8.00069523,18.0010568 M14.311984,7.10253344 L15.7080038,5.70788954 L14.2939081,4.29377903 L12.8978882,5.68842293 C11.7924741,4.82911093 10.4576345,4.25345532 9.00043452,4.06991296 L9.00043452,2.0008899 L11.0013036,2.0008899 L9.00043452,0 L7.00095594,0 L5.0000869,2.0008899 L7.00095594,2.0008899 L7.00095594,4.06991296 C3.06039802,4.56492116 0,7.9284741 0,12.001168 C0,16.4117467 3.58877205,20.0005562 8.00069523,20.0005562 C12.4126184,20.0005562 16.0013905,16.4117467 16.0013905,12.001168 C16.0013905,10.1546205 15.3659512,8.45824411 14.311984,7.10253344" id="Fill-2"></path>
            </g>
        </g>
    </g>
</svg>