<?xml version="1.0" encoding="UTF-8"?>
<svg width="20px" height="18px" viewBox="0 0 20 18" version="1.1" xmlns="http://www.w3.org/2000/svg" xmlns:xlink="http://www.w3.org/1999/xlink">
    <title>Type_2_mennekes Copy 7</title>
    <g id="App-Design" stroke="none" stroke-width="1" fill="none" fill-rule="evenodd">
        <g id="Identify-charger--select" transform="translate(-105.000000, -416.000000)" stroke="#FFFFFF">
            <g id="Group-12" transform="translate(28.000000, 417.000000)">
                <g id="Type_2_mennekes-Copy-7" transform="translate(78.000000, 0.000000)">
                    <ellipse id="ellipse4206" stroke-width="1.06952501" cx="11.5212025" cy="10.9558107" rx="1.57742863" ry="1.52980349"></ellipse>
                    <ellipse id="ellipse4208" stroke-width="1.06952501" cx="6.4700188" cy="10.9558107" rx="1.57742863" ry="1.52980349"></ellipse>
                    <ellipse id="ellipse4210" stroke-width="1.06952501" cx="4.09299106" cy="6.82432491" rx="1.57742863" ry="1.52980349"></ellipse>
                    <ellipse id="ellipse4212" stroke-width="1.06952501" cx="8.99561161" cy="6.82432491" rx="1.57742863" ry="1.52980349"></ellipse>
                    <ellipse id="ellipse4214" stroke-width="1.06952501" cx="13.8239496" cy="6.82432491" rx="1.57742863" ry="1.52980349"></ellipse>
                    <ellipse id="ellipse4216" stroke-width="1.06952501" cx="11.4840627" cy="3.46749513" rx="1.15160283" ry="1.18065279"></ellipse>
                    <ellipse id="ellipse4218" stroke-width="1.06952501" cx="6.65572466" cy="3.46749513" rx="1.15160283" ry="1.18065279"></ellipse>
                    <path d="M4.01870523,0 L14.1210741,0 C14.1210741,0 15.1803818,0.711410684 15.6266613,1.20023272 C16.0729412,1.68905523 16.4980589,2.34629291 16.7952192,2.87726823 C17.0923795,3.40824355 17.3331239,3.88383612 17.5380516,4.50036659 C17.7429793,5.11689705 17.9307885,5.75926638 17.9837444,6.5661081 C18.0367003,7.37294982 17.9597169,8.47695312 17.7608982,9.29583844 C17.5620796,10.1147233 17.1927609,10.8599332 16.8695131,11.4353573 C16.5462652,12.0107809 16.309493,12.3023618 15.9038449,12.763334 C15.4981968,13.2243063 14.9651572,13.7441946 14.4182023,14.1650872 C13.8712474,14.5859793 13.2956964,14.971175 12.635432,15.2717346 C11.9751676,15.5722942 10.4812499,15.9357234 10.4812499,15.9357234 C10.4812499,15.9357234 8.45835151,16.2052009 6.8414258,15.6406177 C6.19872982,15.4162072 5.77757858,15.3397085 5.05865499,14.9766289 C4.15805424,14.5217966 3.29064994,13.9451675 2.60734472,13.2059931 C1.66823153,12.1900955 0.915588007,10.9651367 0.453163147,9.66472107 C0.0869915735,8.63498651 -0.0329259335,7.50988738 0.00747079901,6.41855523 C0.0381586134,5.58951699 0.233387262,4.76042071 0.527445206,3.98393109 C0.77721154,3.32439842 1.20102926,2.69000449 1.56739543,2.13951841 C1.92578762,1.60101415 2.55685222,1.0106665 2.97875548,0.663988827 C3.40065874,0.31731115 4.01870523,0 4.01870523,0 Z" id="path4231" stroke-width="1.8600435" stroke-linejoin="round"></path>
                </g>
            </g>
        </g>
    </g>
</svg>