<svg width="80" height="80" xmlns="http://www.w3.org/2000/svg" xmlns:xlink="http://www.w3.org/1999/xlink">
    <defs>
        <path id="a" d="M0 0h80v80H0z"/>
    </defs>
    <g fill="none" fill-rule="evenodd">
        <g>
            <mask id="b" fill="#fff">
                <use xlink:href="#a"/>
            </mask>
            <path d="M40 71.113c-17.155 0-31.108-13.954-31.108-31.11C8.892 22.841 22.845 8.887 40 8.887c17.154 0 31.108 13.954 31.108 31.116 0 17.156-13.954 31.11-31.108 31.11M40 0C17.945 0 0 17.947 0 40.003S17.944 80 40 80s40-17.94 40-39.997C80 17.947 62.055 0 40 0" fill="#FFF" mask="url(#b)"/>
        </g>
        <path fill="#FFF" d="m35.555 42.604-5.747-5.747-6.284 6.285 12.031 12.032 20.918-20.919-6.284-6.285z"/>
    </g>
</svg>
